# xmcd
#
# Track frame offsets:
#	183
#	12593
#	27483
#	37920
#	50533
#	62163
#	73825
#	82420
#	96818
#	111168
#	124030
#	133938
#	147263
#	160573
#	172795
#	184475
#	196348
#	208290
#	221403
#	234413
#	245710
#	255898
#	267613
#	279680
#	292885
#
# Disc length: 4064 seconds
#
# Revision: 0
# Processed by: cddbd v1.5.1PL0 Copyright (c) Steve Scherf et al.
# Submitted via: dBpowerAMP V4.0
#
DISCID=830fde19
DTITLE=Various Artist - Calypso War - Black Music In Britain 1956-1958
DYEAR=1993
DGENRE=Latin
TTITLE0=The Mighty Terror And His Calypsonians - Women Police In England
TTITLE1=Lord Invader And His Calypso Quintet - Prince Rainier
TTITLE2=Ben Bowers Accompanied By Bertie King's Royal Jamaicans - Donkey City
TTITLE3=Lord Ivanhoe And His Caribbean Knights - Belinda
TTITLE4=Lord Invader And His Calypso Rhythm Boys - You Don't Need Glasses To See
TTITLE5=The Mighty Terror And His Calypsonians - Brownskin Gal
TTITLE6=Ben Bowers Accompanied By Bertie King's Royal Jamaicans - Not Me
TTITLE7=Lord Invader And His Calypso Rhythm Boys - New York Subway
TTITLE8=Lord Ivanhoe And His Caribbean Knights - The Water Gobbler
TTITLE9=The Mighty Terror And His Calypsonians - Kitch Cavalcade
TTITLE10=Lord Invader And His Calypso Quintet - Mahalia, I Want Back My Dollar
TTITLE11=Lord Ivanhoe And His Caribbean Knights - Africa, Here I Come
TTITLE12=The Mighty Terror And His Calypsonians - Little Jeannie
TTITLE13=Ben Bowers Accompanied By Bertie King's Royal Jamaicans - Naughty Little Flea
TTITLE14=Lord Invader And His Calypso Rhythm Band - My Experience On The Rieperbahn
TTITLE15=Lord Ivanhoe And His Caribbean Knights - Lift The Iron Curtain
TTITLE16=Lord Invader And His Calypso Rhythm Boys - I'm Going Back To Africa
TTITLE17=The Mighty Terror And His Calypsonians - Patricia Gone With Millicent
TTITLE18=The Mighty Terror And His Calypsonians - Heading North
TTITLE19=Lord Invader And His Calypso Rhythm Boys - Me One Alone
TTITLE20=The Mighty Terror And His Calypsonians - Calypso War
TTITLE21=Lord Invader And His Calypso Rhythm Boys - Reincarnation (The Bed Bug)
TTITLE22=The Mighty Terror And His Calypsonians - Jamaica Girl
TTITLE23=The Mighty Terror And His Calypsonians - TV Calypso
TTITLE24=Lord Invader And His Calypso Rhythm Boys - Teddy Boy Calypso (Bring Back The Old Cat-o-Nine)
EXTD=
EXTT0=
EXTT1=
EXTT2=
EXTT3=
EXTT4=
EXTT5=
EXTT6=
EXTT7=
EXTT8=
EXTT9=
EXTT10=
EXTT11=
EXTT12=
EXTT13=
EXTT14=
EXTT15=
EXTT16=
EXTT17=
EXTT18=
EXTT19=
EXTT20=
EXTT21=
EXTT22=
EXTT23=
EXTT24=
PLAYORDER=
